<svg xmlns:xlink="http://www.w3.org/1999/xlink" data-v-6805eed4="" version="1.0" xmlns="http://www.w3.org/2000/svg"
     width="100%" height="100%" viewBox="0 0 340.000000 250.000000" preserveAspectRatio="xMidYMid meet"
     color-interpolation-filters="sRGB" style="margin: auto;">
    <rect data-v-6805eed4="" x="0" y="0" width="100%" height="100%" fill="#edeae2" fill-opacity="0" class="background"></rect> <rect data-v-6805eed4="" x="0" y="0" width="100%" height="100%" fill="url(#watermark)" fill-opacity="1" class="watermarklayer"></rect> <g data-v-6805eed4="" fill="#a04732" class="iconblsvg-g iconsvg" transform="translate(117.23291397094727,85.20050811767578)"><g class="tp-name" transform="matrix(1,0,0,1,0,0)" opacity="1"><g data-gra="path-name" transform="translate(0, 32.3232421875)"><g transform="scale(1)"><path d="" transform="translate(0, 0)"></path></g></g> <g transform="translate(3.5, 0)"><g><g class="imagesvg"><g><rect fill="#a04732" fill-opacity="0" stroke-width="2" x="0" y="0" width="98.534171484375" height="64.646484375" class="image-rect"></rect> <svg filter="url(#colors9964569496)" x="0" y="0" width="98.534171484375" height="64.646484375" filtersec="colorsf6950297462" class="image-svg-svg primary" style="overflow: visible;"><svg xmlns="http://www.w3.org/2000/svg" xmlns:xlink="http://www.w3.org/1999/xlink" version="1.1" x="0px" y="0px" viewBox="0 16.508268356323242 96 62.983734130859375" enable-background="new 0 0 96 96" xml:space="preserve"><g><path d="M86.936,24.503l-5.756,0.976l9.555,41.533c-16.77-3.51-38.803,6.854-38.803,6.854L48,75.787l-3.932-1.922   c0,0-22.033-10.363-38.803-6.854l9.555-41.533l-5.756-0.976L0,70.717l48,8.775l48-8.775L86.936,24.503z"></path><g><path d="M46.928,22.676c-10.242-8.031-27.48-5.916-27.48-5.916L9.064,63.807c18.811-2.49,33.84,6.572,37.863,9.299V22.676z"></path><path d="M76.553,16.76c0,0-17.24-2.115-27.482,5.916v50.43c4.023-2.727,19.055-11.789,37.865-9.299L76.553,16.76z"></path></g></g></svg></svg> <defs><filter id="colors9964569496"><feColorMatrix type="matrix" values="0 0 0 0 0.625  0 0 0 0 0.27734375  0 0 0 0 0.1953125  0 0 0 1 0" class="icon-fecolormatrix"></feColorMatrix></filter> <filter id="colorsf6950297462"><feColorMatrix type="matrix" values="0 0 0 0 0.99609375  0 0 0 0 0.99609375  0 0 0 0 0.99609375  0 0 0 1 0" class="icon-fecolormatrix"></feColorMatrix></filter> <filter id="colorsb7127445901"><feColorMatrix type="matrix" values="0 0 0 0 0  0 0 0 0 0  0 0 0 0 0  0 0 0 1 0" class="icon-fecolormatrix"></feColorMatrix></filter></defs></g></g></g></g> <g data-gra="path-name-1" fill="#02000b" transform="translate(105.53417205810547, 32.3232421875)"><g transform="scale(1)"><path d="" transform="translate(0, 0)"></path></g></g></g> <g data-gra="path-slogan" fill-rule="" class="tp-slogan iconsvg-slogansvg" fill="#a04732" transform="matrix(1,0,0,1,4.999996185302734,70.646484375)" opacity="1"><rect x="0" height="1" y="3.9750003814697266" width="20.712085723876953"></rect> <rect height="1" y="3.9750003814697266" width="20.712085723876953" x="67.82208633422852"></rect> <g transform="translate(23.712085723876953,0)"><g transform="scale(1)"><path d="M4.13-7.64L2.06-7.64L2.06-4.97L4.13-4.97Q5.95-4.92 5.91-6.38L5.91-6.38Q5.91-7.64 4.13-7.64L4.13-7.64ZM4.59 0L0.89 0L0.89-8.58L4.69-8.58Q6.98-8.48 7.08-6.42L7.08-6.42Q7.08-5.16 5.95-4.64L5.95-4.64Q7.55-4.08 7.55-2.53L7.55-2.53Q7.41-0.09 4.59 0L4.59 0ZM4.31-3.98L2.06-3.98L2.06-0.98L4.55-0.98Q6.33-1.03 6.38-2.53L6.38-2.53Q6.38-3.98 4.31-3.98L4.31-3.98ZM15.66-4.27L15.66-4.27Q15.47-7.64 12.66-7.83L12.66-7.83Q9.80-7.69 9.66-4.27L9.66-4.27Q9.80-0.94 12.66-0.80L12.66-0.80Q15.47-0.98 15.66-4.27ZM16.83-4.27L16.83-4.27Q16.55 0 12.66 0.14L12.66 0.14Q8.72 0 8.44-4.27L8.44-4.27Q8.67-8.72 12.66-8.81L12.66-8.81Q16.55-8.67 16.83-4.27ZM24.98-4.27L24.98-4.27Q24.80-7.64 21.98-7.83L21.98-7.83Q19.13-7.69 18.98-4.27L18.98-4.27Q19.13-0.94 21.98-0.80L21.98-0.80Q24.80-0.98 24.98-4.27ZM26.16-4.27L26.16-4.27Q25.88 0 21.98 0.14L21.98 0.14Q18.05 0 17.77-4.27L17.77-4.27Q18-8.72 21.98-8.81L21.98-8.81Q25.88-8.67 26.16-4.27ZM30.05-4.31L28.69-3.05L28.69 0L27.52 0L27.52-8.58L28.69-8.58L28.69-4.41L32.86-8.58L34.50-8.58L30.89-5.11L34.59 0L33.05 0L30.05-4.31ZM41.77-6.09L41.77-6.09L40.69-6.09Q40.59-7.73 38.53-7.83L38.53-7.83Q36.61-7.78 36.61-6.33L36.61-6.33Q36.61-5.39 37.64-5.25L37.64-5.25L40.08-4.69Q42-4.22 42-2.34L42-2.34Q41.95 0.05 38.63 0.14L38.63 0.14Q36.80 0.14 36.05-0.61L36.05-0.61Q35.11-1.31 35.16-2.77L35.16-2.77L36.28-2.77Q36.33-0.80 38.63-0.75L38.63-0.75Q40.88-0.80 40.92-2.20L40.92-2.20Q41.11-3.38 39.05-3.75L39.05-3.75L37.27-4.13Q35.44-4.64 35.44-6.19L35.44-6.19Q35.58-8.72 38.44-8.81L38.44-8.81Q41.67-8.81 41.77-6.09Z" transform="translate(-0.890625, 8.8125)"></path></g></g></g></g><defs v-gra="od"></defs></svg>